<svg xmlns="http://www.w3.org/2000/svg" width="1220" height="950" viewBox="0 0 1220 950">
<defs>
  <marker id="arrow" markerWidth="10" markerHeight="10" refX="9" refY="3" orient="auto" markerUnits="strokeWidth">
    <path d="M0,0 L0,6 L9,3 z" fill="#9a9a9a"/>
  </marker>
</defs>
<rect width="100%" height="100%" fill="#ffffff"/>
<text x="610" y="28" text-anchor="middle" font-family="Noto Sans, Arial, sans-serif" font-size="22" font-weight="700">Clean Sondow-Pudlak Collision Proof Spine</text>
<text x="250" y="118" text-anchor="middle" font-family="Noto Sans, Arial, sans-serif" font-size="17" fill="#555">Sondow side</text>
<text x="970" y="118" text-anchor="middle" font-family="Noto Sans, Arial, sans-serif" font-size="17" fill="#555">Pudlak / checker side</text>
<path d="M 610.0 120.0 C 610.0 135.0, 250.0 135.0, 250.0 150.0" fill="none" stroke="#9a9a9a" stroke-width="1.3" marker-end="url(#arrow)"/>
<path d="M 250.0 220.0 C 250.0 240.0, 250.0 240.0, 250.0 260.0" fill="none" stroke="#9a9a9a" stroke-width="1.3" marker-end="url(#arrow)"/>
<path d="M 250.0 348.0 C 250.0 249.0, 970.0 249.0, 970.0 150.0" fill="none" stroke="#9a9a9a" stroke-width="1.3" marker-end="url(#arrow)"/>
<path d="M 970.0 220.0 C 970.0 240.0, 970.0 240.0, 970.0 260.0" fill="none" stroke="#9a9a9a" stroke-width="1.3" marker-end="url(#arrow)"/>
<path d="M 250.0 348.0 C 250.0 364.0, 610.0 364.0, 610.0 380.0" fill="none" stroke="#9a9a9a" stroke-width="1.3" marker-end="url(#arrow)"/>
<path d="M 970.0 348.0 C 970.0 364.0, 610.0 364.0, 610.0 380.0" fill="none" stroke="#9a9a9a" stroke-width="1.3" marker-end="url(#arrow)"/>
<path d="M 610.0 450.0 C 610.0 475.0, 610.0 475.0, 610.0 500.0" fill="none" stroke="#9a9a9a" stroke-width="1.3" marker-end="url(#arrow)"/>
<path d="M 610.0 578.0 C 610.0 594.0, 610.0 594.0, 610.0 610.0" fill="none" stroke="#9a9a9a" stroke-width="1.3" marker-end="url(#arrow)"/>
<path d="M 610.0 680.0 C 610.0 700.0, 610.0 700.0, 610.0 720.0" fill="none" stroke="#9a9a9a" stroke-width="1.3" marker-end="url(#arrow)"/>
<path d="M 250.0 348.0 C 250.0 484.0, 250.0 484.0, 250.0 620.0" fill="none" stroke="#9a9a9a" stroke-width="1.3" stroke-dasharray="7 6" marker-end="url(#arrow)"/>
<path d="M 970.0 348.0 C 970.0 484.0, 250.0 484.0, 250.0 620.0" fill="none" stroke="#9a9a9a" stroke-width="1.3" stroke-dasharray="7 6" marker-end="url(#arrow)"/>
<path d="M 610.0 450.0 C 610.0 535.0, 250.0 535.0, 250.0 620.0" fill="none" stroke="#9a9a9a" stroke-width="1.3" marker-end="url(#arrow)"/>
<path d="M 610.0 578.0 C 610.0 599.0, 970.0 599.0, 970.0 620.0" fill="none" stroke="#9a9a9a" stroke-width="1.3" stroke-dasharray="7 6" marker-end="url(#arrow)"/>
<path d="M 610.0 680.0 C 610.0 650.0, 970.0 650.0, 970.0 620.0" fill="none" stroke="#9a9a9a" stroke-width="1.3" stroke-dasharray="7 6" marker-end="url(#arrow)"/>
<path d="M 610.0 790.0 C 610.0 705.0, 970.0 705.0, 970.0 620.0" fill="none" stroke="#9a9a9a" stroke-width="1.3" marker-end="url(#arrow)"/>
<path d="M 250.0 690.0 C 250.0 770.0, 610.0 770.0, 610.0 850.0" fill="none" stroke="#9a9a9a" stroke-width="1.3" marker-end="url(#arrow)"/>
<path d="M 970.0 690.0 C 970.0 770.0, 610.0 770.0, 610.0 850.0" fill="none" stroke="#9a9a9a" stroke-width="1.3" marker-end="url(#arrow)"/>
<rect x="455.0" y="50.0" width="310.0" height="70.0" rx="6" fill="#e9f7f7" stroke="#6aa6a6" stroke-width="1.4"/>
<text x="610.0" y="76.3" text-anchor="middle" dominant-baseline="middle" font-family="Noto Sans, Arial, sans-serif" font-size="15">h : is_rational</text>
<text x="610.0" y="94.0" text-anchor="middle" dominant-baseline="middle" font-family="Noto Sans, Arial, sans-serif" font-size="15">euler_mascheroni</text>
<rect x="95.0" y="150.0" width="310.0" height="70.0" rx="6" fill="#e9f7f7" stroke="#6aa6a6" stroke-width="1.4"/>
<text x="250.0" y="185.0" text-anchor="middle" dominant-baseline="middle" font-family="Noto Sans, Arial, sans-serif" font-size="15">checkedSearchUpperTail</text>
<rect x="55.0" y="260.0" width="390.0" height="88.0" rx="6" fill="#e9f7f7" stroke="#6aa6a6" stroke-width="1.4"/>
<text x="250.0" y="295.3" text-anchor="middle" dominant-baseline="middle" font-family="Noto Sans, Arial, sans-serif" font-size="15">U, polynomial, upperN</text>
<text x="250.0" y="313.0" text-anchor="middle" dominant-baseline="middle" font-family="Noto Sans, Arial, sans-serif" font-size="15">n &gt;= upperN -&gt; M(n) &lt;= U(n)</text>
<rect x="815.0" y="150.0" width="310.0" height="70.0" rx="6" fill="#e9f7f7" stroke="#6aa6a6" stroke-width="1.4"/>
<text x="970.0" y="185.0" text-anchor="middle" dominant-baseline="middle" font-family="Noto Sans, Arial, sans-serif" font-size="15">gap_for_polynomial_upper</text>
<rect x="775.0" y="260.0" width="390.0" height="88.0" rx="6" fill="#e9f7f7" stroke="#6aa6a6" stroke-width="1.4"/>
<text x="970.0" y="286.6" text-anchor="middle" dominant-baseline="middle" font-family="Noto Sans, Arial, sans-serif" font-size="15">threshold</text>
<text x="970.0" y="304.3" text-anchor="middle" dominant-baseline="middle" font-family="Noto Sans, Arial, sans-serif" font-size="15">n &gt;= threshold -&gt; U(n) &lt;</text>
<text x="970.0" y="322.0" text-anchor="middle" dominant-baseline="middle" font-family="Noto Sans, Arial, sans-serif" font-size="15">M(n)</text>
<rect x="455.0" y="380.0" width="310.0" height="70.0" rx="6" fill="#e9f7f7" stroke="#6aa6a6" stroke-width="1.4"/>
<text x="610.0" y="415.0" text-anchor="middle" dominant-baseline="middle" font-family="Noto Sans, Arial, sans-serif" font-size="15">N = max upperN threshold</text>
<rect x="440.0" y="500.0" width="340.0" height="78.0" rx="6" fill="#e9f7f7" stroke="#6aa6a6" stroke-width="1.4"/>
<text x="610.0" y="530.3" text-anchor="middle" dominant-baseline="middle" font-family="Noto Sans, Arial, sans-serif" font-size="15">M(N) &lt;= U(N)</text>
<text x="610.0" y="548.0" text-anchor="middle" dominant-baseline="middle" font-family="Noto Sans, Arial, sans-serif" font-size="15">and U(N) &lt; M(N)</text>
<rect x="455.0" y="610.0" width="310.0" height="70.0" rx="6" fill="#e9f7f7" stroke="#6aa6a6" stroke-width="1.4"/>
<text x="610.0" y="645.0" text-anchor="middle" dominant-baseline="middle" font-family="Noto Sans, Arial, sans-serif" font-size="15">False</text>
<rect x="455.0" y="720.0" width="310.0" height="70.0" rx="6" fill="#fff4df" stroke="#6aa6a6" stroke-width="1.4"/>
<text x="610.0" y="746.3" text-anchor="middle" dominant-baseline="middle" font-family="Noto Sans, Arial, sans-serif" font-size="15">not is_rational</text>
<text x="610.0" y="764.0" text-anchor="middle" dominant-baseline="middle" font-family="Noto Sans, Arial, sans-serif" font-size="15">euler_mascheroni</text>
<rect x="95.0" y="620.0" width="310.0" height="70.0" rx="6" fill="#fff4df" stroke="#6aa6a6" stroke-width="1.4"/>
<text x="250.0" y="646.3" text-anchor="middle" dominant-baseline="middle" font-family="Noto Sans, Arial, sans-serif" font-size="15">cleanComputedBigN</text>
<text x="250.0" y="664.0" text-anchor="middle" dominant-baseline="middle" font-family="Noto Sans, Arial, sans-serif" font-size="15">_eq_tailGapMax</text>
<rect x="815.0" y="620.0" width="310.0" height="70.0" rx="6" fill="#fff4df" stroke="#6aa6a6" stroke-width="1.4"/>
<text x="970.0" y="646.3" text-anchor="middle" dominant-baseline="middle" font-family="Noto Sans, Arial, sans-serif" font-size="15">cleanProvider</text>
<text x="970.0" y="664.0" text-anchor="middle" dominant-baseline="middle" font-family="Noto Sans, Arial, sans-serif" font-size="15">_not_rational</text>
<rect x="415.0" y="850.0" width="390.0" height="70.0" rx="6" fill="#fff4df" stroke="#6aa6a6" stroke-width="1.4"/>
<text x="610.0" y="876.3" text-anchor="middle" dominant-baseline="middle" font-family="Noto Sans, Arial, sans-serif" font-size="15">cleanUpperProvider</text>
<text x="610.0" y="894.0" text-anchor="middle" dominant-baseline="middle" font-family="Noto Sans, Arial, sans-serif" font-size="15">_submissionRoute</text>
</svg>
