<?xml version="1.0" encoding="UTF-8" standalone="no"?>
<!DOCTYPE svg PUBLIC "-//W3C//DTD SVG 1.1//EN"
 "http://www.w3.org/Graphics/SVG/1.1/DTD/svg11.dtd">
<!-- Generated by graphviz version 2.43.0 (0)
 -->
<!-- Title: CheckedMinProofMain Pages: 1 -->
<svg width="864pt" height="1152pt"
 viewBox="0.00 0.00 864.00 1152.28" xmlns="http://www.w3.org/2000/svg" xmlns:xlink="http://www.w3.org/1999/xlink">
<g id="graph0" class="graph" transform="scale(0.78 0.78) rotate(0) translate(12.96 1455.96)">
<title>CheckedMinProofMain</title>
<polygon fill="white" stroke="transparent" points="-12.96,12.96 -12.96,-1455.96 1088.46,-1455.96 1088.46,12.96 -12.96,12.96"/>
<text text-anchor="middle" x="537.75" y="-1421.4" font-family="Noto Sans CJK SC" font-size="22.00">纸面证明优先：全局依赖与未证数学桥（2026&#45;09&#45;05）</text>
<g id="clust1" class="cluster">
<title>cluster_legend</title>
<path fill="white" stroke="#c8d1d4" d="M20,-1319C20,-1319 900,-1319 900,-1319 906,-1319 912,-1325 912,-1331 912,-1331 912,-1391 912,-1391 912,-1397 906,-1403 900,-1403 900,-1403 20,-1403 20,-1403 14,-1403 8,-1397 8,-1391 8,-1391 8,-1331 8,-1331 8,-1325 14,-1319 20,-1319"/>
<text text-anchor="middle" x="460" y="-1381.4" font-family="Noto Sans CJK SC" font-size="22.00">状态</text>
</g>
<!-- legend_done -->
<g id="node1" class="node">
<title>legend_done</title>
<path fill="#dff2e8" stroke="#3f7c66" stroke-width="1.2" d="M892.5,-1363C892.5,-1363 685.5,-1363 685.5,-1363 679.5,-1363 673.5,-1357 673.5,-1351 673.5,-1351 673.5,-1339 673.5,-1339 673.5,-1333 679.5,-1327 685.5,-1327 685.5,-1327 892.5,-1327 892.5,-1327 898.5,-1327 904.5,-1333 904.5,-1339 904.5,-1339 904.5,-1351 904.5,-1351 904.5,-1357 898.5,-1363 892.5,-1363"/>
<text text-anchor="middle" x="789" y="-1342.6" font-family="Noto Sans CJK SC" font-size="10.50">绿色：已有局部检查记录（非本轮全量复核）</text>
</g>
<!-- legend_active -->
<g id="node2" class="node">
<title>legend_active</title>
<path fill="#fff0c9" stroke="#b37a12" stroke-width="2.4" d="M641,-1363C641,-1363 529,-1363 529,-1363 523,-1363 517,-1357 517,-1351 517,-1351 517,-1339 517,-1339 517,-1333 523,-1327 529,-1327 529,-1327 641,-1327 641,-1327 647,-1327 653,-1333 653,-1339 653,-1339 653,-1351 653,-1351 653,-1357 647,-1363 641,-1363"/>
<text text-anchor="middle" x="585" y="-1342.6" font-family="Noto Sans CJK SC" font-size="10.50">黄色：当前纸面数学义务</text>
</g>
<!-- legend_paper -->
<g id="node3" class="node">
<title>legend_paper</title>
<path fill="#e1edf9" stroke="#47799e" stroke-width="1.2" d="M484.5,-1363C484.5,-1363 277.5,-1363 277.5,-1363 271.5,-1363 265.5,-1357 265.5,-1351 265.5,-1351 265.5,-1339 265.5,-1339 265.5,-1333 271.5,-1327 277.5,-1327 277.5,-1327 484.5,-1327 484.5,-1327 490.5,-1327 496.5,-1333 496.5,-1339 496.5,-1339 496.5,-1351 496.5,-1351 496.5,-1357 490.5,-1363 484.5,-1363"/>
<text text-anchor="middle" x="381" y="-1342.6" font-family="Noto Sans CJK SC" font-size="10.50">蓝色：纸面局部或条件证明（未新增形式化）</text>
</g>
<!-- legend_pending -->
<g id="node4" class="node">
<title>legend_pending</title>
<path fill="#f3f3f3" stroke="#777777" stroke-width="1.2" stroke-dasharray="5,2" d="M233.5,-1363C233.5,-1363 142.5,-1363 142.5,-1363 136.5,-1363 130.5,-1357 130.5,-1351 130.5,-1351 130.5,-1339 130.5,-1339 130.5,-1333 136.5,-1327 142.5,-1327 142.5,-1327 233.5,-1327 233.5,-1327 239.5,-1327 245.5,-1333 245.5,-1339 245.5,-1339 245.5,-1351 245.5,-1351 245.5,-1357 239.5,-1363 233.5,-1363"/>
<text text-anchor="middle" x="188" y="-1342.6" font-family="Noto Sans CJK SC" font-size="10.50">灰色：等待前置定理</text>
</g>
<!-- legend_rejected -->
<g id="node5" class="node">
<title>legend_rejected</title>
<path fill="#f8d9d6" stroke="#a8443d" stroke-width="1.2" stroke-dasharray="5,2" d="M98,-1363C98,-1363 28,-1363 28,-1363 22,-1363 16,-1357 16,-1351 16,-1351 16,-1339 16,-1339 16,-1333 22,-1327 28,-1327 28,-1327 98,-1327 98,-1327 104,-1327 110,-1333 110,-1339 110,-1339 110,-1351 110,-1351 110,-1357 104,-1363 98,-1363"/>
<text text-anchor="middle" x="63" y="-1342.6" font-family="Noto Sans CJK SC" font-size="10.50">红色：弃用路线</text>
</g>
<!-- coordinate -->
<g id="node6" class="node">
<title>coordinate</title>
<path fill="#dff2e8" stroke="#3f7c66" stroke-width="1.2" d="M1063,-1369C1063,-1369 937,-1369 937,-1369 931,-1369 925,-1363 925,-1357 925,-1357 925,-1333 925,-1333 925,-1327 931,-1321 937,-1321 937,-1321 1063,-1321 1063,-1321 1069,-1321 1075,-1327 1075,-1333 1075,-1333 1075,-1357 1075,-1357 1075,-1363 1069,-1369 1063,-1369"/>
<text text-anchor="middle" x="1000" y="-1354.6" font-family="Noto Sans CJK SC" font-size="10.50">M01 诚实证明坐标</text>
<text text-anchor="middle" x="1000" y="-1342.6" font-family="Noto Sans CJK SC" font-size="10.50">proof + certificate 全部计长</text>
<text text-anchor="middle" x="1000" y="-1330.6" font-family="Noto Sans CJK SC" font-size="10.50">规范码与最短完整载荷</text>
</g>
<!-- checker -->
<g id="node7" class="node">
<title>checker</title>
<path fill="#dff2e8" stroke="#3f7c66" stroke-width="1.2" d="M518.5,-1286C518.5,-1286 379.5,-1286 379.5,-1286 373.5,-1286 367.5,-1280 367.5,-1274 367.5,-1274 367.5,-1250 367.5,-1250 367.5,-1244 373.5,-1238 379.5,-1238 379.5,-1238 518.5,-1238 518.5,-1238 524.5,-1238 530.5,-1244 530.5,-1250 530.5,-1250 530.5,-1274 530.5,-1274 530.5,-1280 524.5,-1286 518.5,-1286"/>
<text text-anchor="middle" x="449" y="-1271.6" font-family="Noto Sans CJK SC" font-size="10.50">M02 真实 PA 检查器</text>
<text text-anchor="middle" x="449" y="-1259.6" font-family="Noto Sans CJK SC" font-size="10.50">接受码 &lt;&#45;&gt; 同公式 Derivation2</text>
<text text-anchor="middle" x="449" y="-1247.6" font-family="Noto Sans CJK SC" font-size="10.50">无隐藏辅助见证</text>
</g>
<!-- coordinate&#45;&gt;checker -->
<g id="edge1" class="edge">
<title>coordinate&#45;&gt;checker</title>
<path fill="none" stroke="#65777d" stroke-width="1.05" d="M924.96,-1321.4C920.04,-1319.92 917,-1319 917,-1319 917,-1319 786,-1304 786,-1304 786,-1304 637.23,-1285.9 537.38,-1273.75"/>
<polygon fill="#65777d" stroke="#65777d" stroke-width="1.05" points="537.62,-1271.38 530.58,-1272.92 537.04,-1276.11 537.62,-1271.38"/>
</g>
<!-- compiler_core -->
<g id="node11" class="node">
<title>compiler_core</title>
<path fill="#dff2e8" stroke="#2f6f57" stroke-width="2.8" d="M684.5,-1203C684.5,-1203 525.5,-1203 525.5,-1203 519.5,-1203 513.5,-1197 513.5,-1191 513.5,-1191 513.5,-1167 513.5,-1167 513.5,-1161 519.5,-1155 525.5,-1155 525.5,-1155 684.5,-1155 684.5,-1155 690.5,-1155 696.5,-1161 696.5,-1167 696.5,-1167 696.5,-1191 696.5,-1191 696.5,-1197 690.5,-1203 684.5,-1203"/>
<text text-anchor="middle" x="605" y="-1188.6" font-family="Noto Sans CJK SC" font-size="10.50">M05 真实 PA 定量证明产生核心</text>
<text text-anchor="middle" x="605" y="-1176.6" font-family="Noto Sans CJK SC" font-size="10.50">公理实例化、MP、合取、存在引入</text>
<text text-anchor="middle" x="605" y="-1164.6" font-family="Noto Sans CJK SC" font-size="10.50">实际推导 + 证书 + 完整载荷界</text>
</g>
<!-- coordinate&#45;&gt;compiler_core -->
<g id="edge4" class="edge">
<title>coordinate&#45;&gt;compiler_core</title>
<path fill="none" stroke="#65777d" stroke-width="1.05" d="M944.24,-1320.85C871.02,-1290.45 742.86,-1237.24 666.76,-1205.64"/>
<polygon fill="#65777d" stroke="#65777d" stroke-width="1.05" points="667.67,-1203.44 660.47,-1203.03 665.84,-1207.84 667.67,-1203.44"/>
</g>
<!-- minmeasure -->
<g id="node8" class="node">
<title>minmeasure</title>
<path fill="#dff2e8" stroke="#3f7c66" stroke-width="1.2" d="M499.5,-522C499.5,-522 294.5,-522 294.5,-522 288.5,-522 282.5,-516 282.5,-510 282.5,-510 282.5,-486 282.5,-486 282.5,-480 288.5,-474 294.5,-474 294.5,-474 499.5,-474 499.5,-474 505.5,-474 511.5,-480 511.5,-486 511.5,-486 511.5,-510 511.5,-510 511.5,-516 505.5,-522 499.5,-522"/>
<text text-anchor="middle" x="397" y="-507.6" font-family="Noto Sans CJK SC" font-size="10.50">M03 检查器诱导的最短长度</text>
<text text-anchor="middle" x="397" y="-495.6" font-family="Noto Sans CJK SC" font-size="10.50">存在证明时取最小完整载荷</text>
<text text-anchor="middle" x="397" y="-483.6" font-family="Noto Sans CJK SC" font-size="10.50">无证明时 Nat 返回 0；下界先用无短证明表述</text>
</g>
<!-- checker&#45;&gt;minmeasure -->
<g id="edge2" class="edge">
<title>checker&#45;&gt;minmeasure</title>
<path fill="none" stroke="#65777d" stroke-width="1.05" d="M435.69,-1237.57C422.11,-1213.65 403,-1180 403,-1180 403,-1180 403,-1180 403,-588 403,-588 400.79,-555.21 399.05,-529.43"/>
<polygon fill="#65777d" stroke="#65777d" stroke-width="1.05" points="401.41,-529.01 398.58,-522.38 396.66,-529.33 401.41,-529.01"/>
</g>
<!-- checker&#45;&gt;compiler_core -->
<g id="edge3" class="edge">
<title>checker&#45;&gt;compiler_core</title>
<path fill="none" stroke="#65777d" stroke-width="1.05" d="M493.7,-1237.79C512.63,-1227.96 534.78,-1216.46 554.32,-1206.32"/>
<polygon fill="#65777d" stroke="#65777d" stroke-width="1.05" points="555.62,-1208.32 560.56,-1203.07 553.43,-1204.1 555.62,-1208.32"/>
</g>
<!-- audit_gate -->
<g id="node25" class="node">
<title>audit_gate</title>
<path fill="#e9e3f5" stroke="#76639a" stroke-width="1.2" stroke-dasharray="5,2" d="M527.5,-190C527.5,-190 354.5,-190 354.5,-190 348.5,-190 342.5,-184 342.5,-178 342.5,-178 342.5,-154 342.5,-154 342.5,-148 348.5,-142 354.5,-142 354.5,-142 527.5,-142 527.5,-142 533.5,-142 539.5,-148 539.5,-154 539.5,-154 539.5,-178 539.5,-178 539.5,-184 533.5,-190 527.5,-190"/>
<text text-anchor="middle" x="441" y="-175.6" font-family="Noto Sans CJK SC" font-size="10.50">M19 最终依赖审计</text>
<text text-anchor="middle" x="441" y="-163.6" font-family="Noto Sans CJK SC" font-size="10.50">同一 n、G_n、检查器、完整载荷度量</text>
<text text-anchor="middle" x="441" y="-151.6" font-family="Noto Sans CJK SC" font-size="10.50">无项目公设、无循环输入</text>
</g>
<!-- checker&#45;&gt;audit_gate -->
<g id="edge25" class="edge">
<title>checker&#45;&gt;audit_gate</title>
<path fill="none" stroke="#65777d" stroke-width="1.05" stroke-dasharray="1,5" d="M392.53,-1237.9C334,-1213.96 251,-1180 251,-1180 251,-1180 251,-1180 251,-248 251,-248 324.85,-216.52 380.46,-192.81"/>
<polygon fill="#65777d" stroke="#65777d" stroke-width="1.05" points="381.49,-194.96 386.81,-190.1 379.62,-190.58 381.49,-194.96"/>
</g>
<!-- lower -->
<g id="node21" class="node">
<title>lower</title>
<path fill="#f3f3f3" stroke="#777777" stroke-width="1.2" stroke-dasharray="5,2" d="M532.5,-273C532.5,-273 349.5,-273 349.5,-273 343.5,-273 337.5,-267 337.5,-261 337.5,-261 337.5,-237 337.5,-237 337.5,-231 343.5,-225 349.5,-225 349.5,-225 532.5,-225 532.5,-225 538.5,-225 544.5,-231 544.5,-237 544.5,-237 544.5,-261 544.5,-261 544.5,-267 538.5,-273 532.5,-273"/>
<text text-anchor="middle" x="441" y="-258.6" font-family="Noto Sans CJK SC" font-size="10.50">M15 同对象下界【仍未证】</text>
<text text-anchor="middle" x="441" y="-246.6" font-family="Noto Sans CJK SC" font-size="10.50">最终不存在载荷 ≤ (n+1)^n 的 G_n 证明</text>
<text text-anchor="middle" x="441" y="-234.6" font-family="Noto Sans CJK SC" font-size="10.50">不预设最短长度存在</text>
</g>
<!-- minmeasure&#45;&gt;lower -->
<g id="edge17" class="edge">
<title>minmeasure&#45;&gt;lower</title>
<path fill="none" stroke="#65777d" stroke-width="1.05" stroke-dasharray="1,5" d="M399.58,-473.82C405.18,-423.36 418,-308 418,-308 418,-308 423.55,-294.01 429.2,-279.77"/>
<polygon fill="#65777d" stroke="#65777d" stroke-width="1.05" points="431.48,-280.46 431.78,-273.26 427.06,-278.7 431.48,-280.46"/>
</g>
<!-- upper -->
<g id="node24" class="node">
<title>upper</title>
<path fill="#f3f3f3" stroke="#777777" stroke-width="1.2" stroke-dasharray="5,2" d="M771,-433C771,-433 663,-433 663,-433 657,-433 651,-427 651,-421 651,-421 651,-409 651,-409 651,-403 657,-397 663,-397 663,-397 771,-397 771,-397 777,-397 783,-403 783,-409 783,-409 783,-421 783,-421 783,-427 777,-433 771,-433"/>
<text text-anchor="middle" x="717" y="-418.6" font-family="Noto Sans CJK SC" font-size="10.50">M18 同对象多项式上界</text>
<text text-anchor="middle" x="717" y="-406.6" font-family="Noto Sans CJK SC" font-size="10.50">minProof(G_n) &lt;= U(n)</text>
</g>
<!-- minmeasure&#45;&gt;upper -->
<g id="edge22" class="edge">
<title>minmeasure&#45;&gt;upper</title>
<path fill="none" stroke="#65777d" stroke-width="1.05" stroke-dasharray="1,5" d="M493.79,-473.99C561.91,-457.8 641,-439 641,-439 641,-439 646.11,-437.45 653.69,-435.16"/>
<polygon fill="#65777d" stroke="#65777d" stroke-width="1.05" points="654.75,-437.32 660.57,-433.08 653.37,-432.77 654.75,-437.32"/>
</g>
<!-- direct_partial -->
<g id="node9" class="node">
<title>direct_partial</title>
<path fill="#dff2e8" stroke="#3f7c66" stroke-width="1.2" d="M977,-823C977,-823 811,-823 811,-823 805,-823 799,-817 799,-811 799,-811 799,-787 799,-787 799,-781 805,-775 811,-775 811,-775 977,-775 977,-775 983,-775 989,-781 989,-787 989,-787 989,-811 989,-811 989,-817 983,-823 977,-823"/>
<text text-anchor="middle" x="894" y="-808.6" font-family="Noto Sans CJK SC" font-size="10.50">M04 直接算术化的历史部件</text>
<text text-anchor="middle" x="894" y="-796.6" font-family="Noto Sans CJK SC" font-size="10.50">语法、表格、初终态等 146 项可复用</text>
<text text-anchor="middle" x="894" y="-784.6" font-family="Noto Sans CJK SC" font-size="10.50">完整谓词状态见 M10</text>
</g>
<!-- branch_route -->
<g id="node10" class="node">
<title>branch_route</title>
<path fill="#f8d9d6" stroke="#a8443d" stroke-width="1.2" stroke-dasharray="5,2" d="M1063.5,-708C1063.5,-708 856.5,-708 856.5,-708 850.5,-708 844.5,-702 844.5,-696 844.5,-696 844.5,-672 844.5,-672 844.5,-666 850.5,-660 856.5,-660 856.5,-660 1063.5,-660 1063.5,-660 1069.5,-660 1075.5,-666 1075.5,-672 1075.5,-672 1075.5,-696 1075.5,-696 1075.5,-702 1069.5,-708 1063.5,-708"/>
<text text-anchor="middle" x="960" y="-693.6" font-family="Noto Sans CJK SC" font-size="10.50">X01 逐解析器分支无限展开</text>
<text text-anchor="middle" x="960" y="-681.6" font-family="Noto Sans CJK SC" font-size="10.50">可产生局部绿点但不能可靠到达短证明编译器</text>
<text text-anchor="middle" x="960" y="-669.6" font-family="Noto Sans CJK SC" font-size="10.50">已暂停，不通向主结论</text>
</g>
<!-- direct_partial&#45;&gt;branch_route -->
<g id="edge28" class="edge">
<title>direct_partial&#45;&gt;branch_route</title>
<path fill="none" stroke="#a8443d" stroke-width="1.05" stroke-dasharray="5,2" d="M907.87,-774.74C916.12,-760.89 925,-746 925,-746 925,-746 936.86,-725.34 946.77,-708.06"/>
</g>
<!-- direct_predicate -->
<g id="node16" class="node">
<title>direct_predicate</title>
<path fill="#dff2e8" stroke="#2f6f57" stroke-width="2.8" d="M812.5,-720C812.5,-720 529.5,-720 529.5,-720 523.5,-720 517.5,-714 517.5,-708 517.5,-708 517.5,-660 517.5,-660 517.5,-654 523.5,-648 529.5,-648 529.5,-648 812.5,-648 812.5,-648 818.5,-648 824.5,-654 824.5,-660 824.5,-660 824.5,-708 824.5,-708 824.5,-714 818.5,-720 812.5,-720"/>
<text text-anchor="middle" x="671" y="-705.6" font-family="Noto Sans CJK SC" font-size="10.50">M10 同一检查器的 P_direct</text>
<text text-anchor="middle" x="671" y="-693.6" font-family="Noto Sans CJK SC" font-size="10.50">显式二变量 Sigma&#45;one 公式已闭合</text>
<text text-anchor="middle" x="671" y="-681.6" font-family="Noto Sans CJK SC" font-size="10.50">逐点 iff 同一公开检查器在同一 formulaCode 上接受</text>
<text text-anchor="middle" x="671" y="-669.6" font-family="Noto Sans CJK SC" font-size="10.50">同一 proof + certificate 载荷码及 packedPayloadLength 度量</text>
<text text-anchor="middle" x="671" y="-657.6" font-family="Noto Sans CJK SC" font-size="10.50">反向语法恢复、探针与禁用扫描通过；公理画像仅标准三项</text>
</g>
<!-- direct_partial&#45;&gt;direct_predicate -->
<g id="edge9" class="edge">
<title>direct_partial&#45;&gt;direct_predicate</title>
<path fill="none" stroke="#65777d" stroke-width="1.05" stroke-dasharray="1,5" d="M848.6,-775C819.35,-760.17 780.6,-740.54 746.76,-723.39"/>
<polygon fill="#65777d" stroke="#65777d" stroke-width="1.05" points="747.64,-721.17 740.5,-720.22 745.49,-725.41 747.64,-721.17"/>
<text text-anchor="middle" x="822.5" y="-739.2" font-family="Noto Sans CJK SC" font-size="8.50">只复用已审计部件</text>
</g>
<!-- binary_base -->
<g id="node12" class="node">
<title>binary_base</title>
<path fill="#dff2e8" stroke="#2f6f57" stroke-width="2.8" d="M690,-1120C690,-1120 520,-1120 520,-1120 514,-1120 508,-1114 508,-1108 508,-1108 508,-1084 508,-1084 508,-1078 514,-1072 520,-1072 520,-1072 690,-1072 690,-1072 696,-1072 702,-1078 702,-1084 702,-1084 702,-1108 702,-1108 702,-1114 696,-1120 690,-1120"/>
<text text-anchor="middle" x="605" y="-1105.6" font-family="Noto Sans CJK SC" font-size="10.50">M06 短二进制数词证明基元</text>
<text text-anchor="middle" x="605" y="-1093.6" font-family="Noto Sans CJK SC" font-size="10.50">公开检查器接受</text>
<text text-anchor="middle" x="605" y="-1081.6" font-family="Noto Sans CJK SC" font-size="10.50">载荷为 Nat.size(n) 的显式三次多项式</text>
</g>
<!-- compiler_core&#45;&gt;binary_base -->
<g id="edge5" class="edge">
<title>compiler_core&#45;&gt;binary_base</title>
<path fill="none" stroke="#65777d" stroke-width="1.05" d="M605,-1154.57C605,-1146.02 605,-1136.22 605,-1127.16"/>
<polygon fill="#65777d" stroke="#65777d" stroke-width="1.05" points="607.38,-1126.9 605,-1120.1 602.62,-1126.9 607.38,-1126.9"/>
</g>
<!-- binary_normalizer -->
<g id="node13" class="node">
<title>binary_normalizer</title>
<path fill="#dff2e8" stroke="#2f6f57" stroke-width="2.8" d="M692.5,-1037C692.5,-1037 517.5,-1037 517.5,-1037 511.5,-1037 505.5,-1031 505.5,-1025 505.5,-1025 505.5,-977 505.5,-977 505.5,-971 511.5,-965 517.5,-965 517.5,-965 692.5,-965 692.5,-965 698.5,-965 704.5,-971 704.5,-977 704.5,-977 704.5,-1025 704.5,-1025 704.5,-1031 698.5,-1037 692.5,-1037"/>
<text text-anchor="middle" x="605" y="-1022.6" font-family="Noto Sans CJK SC" font-size="10.50">M07 二进制等式归一化</text>
<text text-anchor="middle" x="605" y="-1010.6" font-family="Noto Sans CJK SC" font-size="10.50">加法与乘法均产生真实 PA 证明</text>
<text text-anchor="middle" x="605" y="-998.6" font-family="Noto Sans CJK SC" font-size="10.50">公开检查器均接受</text>
<text text-anchor="middle" x="605" y="-986.6" font-family="Noto Sans CJK SC" font-size="10.50">完整载荷均有总输入位宽固定多项式界</text>
<text text-anchor="middle" x="605" y="-974.6" font-family="Noto Sans CJK SC" font-size="10.50">定向构建通过；公理画像仅标准三项</text>
</g>
<!-- binary_base&#45;&gt;binary_normalizer -->
<g id="edge6" class="edge">
<title>binary_base&#45;&gt;binary_normalizer</title>
<path fill="none" stroke="#65777d" stroke-width="1.05" d="M605,-1071.53C605,-1063.13 605,-1053.39 605,-1043.91"/>
<polygon fill="#65777d" stroke="#65777d" stroke-width="1.05" points="607.38,-1043.87 605,-1037.07 602.62,-1043.87 607.38,-1043.87"/>
</g>
<!-- atomic_compiler -->
<g id="node14" class="node">
<title>atomic_compiler</title>
<path fill="#dff2e8" stroke="#2f6f57" stroke-width="2.8" d="M727.5,-930C727.5,-930 482.5,-930 482.5,-930 476.5,-930 470.5,-924 470.5,-918 470.5,-918 470.5,-882 470.5,-882 470.5,-876 476.5,-870 482.5,-870 482.5,-870 727.5,-870 727.5,-870 733.5,-870 739.5,-876 739.5,-882 739.5,-882 739.5,-918 739.5,-918 739.5,-924 733.5,-930 727.5,-930"/>
<text text-anchor="middle" x="605" y="-915.6" font-family="Noto Sans CJK SC" font-size="10.50">M08 闭算术原子文字编译器</text>
<text text-anchor="middle" x="605" y="-903.6" font-family="Noto Sans CJK SC" font-size="10.50">=、≠、&lt;、¬&lt;、≤、¬≤ 六类统一真值证书</text>
<text text-anchor="middle" x="605" y="-891.6" font-family="Noto Sans CJK SC" font-size="10.50">同公式真实 PA 证明 + 公开检查器 + 固定多项式载荷界</text>
<text text-anchor="middle" x="605" y="-879.6" font-family="Noto Sans CJK SC" font-size="10.50">定向构建与清洁扫描通过；公理画像仅标准三项</text>
</g>
<!-- binary_normalizer&#45;&gt;atomic_compiler -->
<g id="edge7" class="edge">
<title>binary_normalizer&#45;&gt;atomic_compiler</title>
<path fill="none" stroke="#65777d" stroke-width="1.05" d="M605,-964.82C605,-955.87 605,-946.24 605,-937.24"/>
<polygon fill="#65777d" stroke="#65777d" stroke-width="1.05" points="607.38,-936.99 605,-930.19 602.62,-936.99 607.38,-936.99"/>
</g>
<!-- bounded_compiler -->
<g id="node15" class="node">
<title>bounded_compiler</title>
<path fill="#dff2e8" stroke="#2f6f57" stroke-width="2.8" d="M761,-835C761,-835 449,-835 449,-835 443,-835 437,-829 437,-823 437,-823 437,-775 437,-775 437,-769 443,-763 449,-763 449,-763 761,-763 761,-763 767,-763 773,-769 773,-775 773,-775 773,-823 773,-823 773,-829 767,-835 761,-835"/>
<text text-anchor="middle" x="605" y="-820.6" font-family="Noto Sans CJK SC" font-size="10.50">M09 有界公式见证编译器</text>
<text text-anchor="middle" x="605" y="-808.6" font-family="Noto Sans CJK SC" font-size="10.50">原子、合取、析取、存在见证与有限有界全称均产生真实 PA 证明</text>
<text text-anchor="middle" x="605" y="-796.6" font-family="Noto Sans CJK SC" font-size="10.50">诚实 proof&#45;free 证书编码 + 公开检查器 + 统一固定多项式完整载荷界</text>
<text text-anchor="middle" x="605" y="-784.6" font-family="Noto Sans CJK SC" font-size="10.50">有限穷举、归纳、分支输运和全称引入全部计长</text>
<text text-anchor="middle" x="605" y="-772.6" font-family="Noto Sans CJK SC" font-size="10.50">定向构建与清洁扫描通过；公理画像仅标准三项</text>
</g>
<!-- atomic_compiler&#45;&gt;bounded_compiler -->
<g id="edge8" class="edge">
<title>atomic_compiler&#45;&gt;bounded_compiler</title>
<path fill="none" stroke="#65777d" stroke-width="1.05" d="M605,-869.83C605,-861.2 605,-851.56 605,-842.27"/>
<polygon fill="#65777d" stroke="#65777d" stroke-width="1.05" points="607.38,-842.06 605,-835.26 602.62,-842.06 607.38,-842.06"/>
</g>
<!-- bounded_compiler&#45;&gt;direct_predicate -->
<g id="edge10" class="edge">
<title>bounded_compiler&#45;&gt;direct_predicate</title>
<path fill="none" stroke="#65777d" stroke-width="1.05" d="M625.52,-762.87C632.29,-751.28 639.88,-738.29 646.89,-726.29"/>
<polygon fill="#65777d" stroke="#65777d" stroke-width="1.05" points="649.12,-727.18 650.49,-720.11 645.01,-724.78 649.12,-727.18"/>
</g>
<!-- accepted_trace -->
<g id="node17" class="node">
<title>accepted_trace</title>
<path fill="#f3f3f3" stroke="#777777" stroke-width="1.2" d="M707,-613C707,-613 511,-613 511,-613 505,-613 499,-607 499,-601 499,-601 499,-577 499,-577 499,-571 505,-565 511,-565 511,-565 707,-565 707,-565 713,-565 719,-571 719,-577 719,-577 719,-601 719,-601 719,-607 713,-613 707,-613"/>
<text text-anchor="middle" x="609" y="-598.6" font-family="Noto Sans CJK SC" font-size="10.50">M11 接受轨迹编译器【形式化暂停】</text>
<text text-anchor="middle" x="609" y="-586.6" font-family="Noto Sans CJK SC" font-size="10.50">默认终态、总轨迹与载荷多项式界仍待闭合</text>
<text text-anchor="middle" x="609" y="-574.6" font-family="Noto Sans CJK SC" font-size="10.50">该编译器自身不能推出 Sondow 数学桥</text>
</g>
<!-- bounded_compiler&#45;&gt;accepted_trace -->
<g id="edge11" class="edge">
<title>bounded_compiler&#45;&gt;accepted_trace</title>
<path fill="none" stroke="#65777d" stroke-width="1.05" d="M561.32,-762.88C535.58,-742.18 508,-720 508,-720 508,-720 508,-648 508,-648 508,-648 536.2,-631.81 562.8,-616.53"/>
<polygon fill="#65777d" stroke="#65777d" stroke-width="1.05" points="564.08,-618.54 568.79,-613.09 561.71,-614.41 564.08,-618.54"/>
</g>
<!-- direct_predicate&#45;&gt;accepted_trace -->
<g id="edge12" class="edge">
<title>direct_predicate&#45;&gt;accepted_trace</title>
<path fill="none" stroke="#65777d" stroke-width="1.05" d="M647.56,-647.84C641.2,-638.3 634.39,-628.09 628.29,-618.94"/>
<polygon fill="#65777d" stroke="#65777d" stroke-width="1.05" points="630.15,-617.44 624.4,-613.1 626.19,-620.08 630.15,-617.44"/>
</g>
<!-- sondow_bridge -->
<g id="node23" class="node">
<title>sondow_bridge</title>
<path fill="#fff0c9" stroke="#b37a12" stroke-width="1.2" d="M934,-522C934,-522 748,-522 748,-522 742,-522 736,-516 736,-510 736,-510 736,-486 736,-486 736,-480 742,-474 748,-474 748,-474 934,-474 934,-474 940,-474 946,-480 946,-486 946,-486 946,-510 946,-510 946,-516 940,-522 934,-522"/>
<text text-anchor="middle" x="841" y="-507.6" font-family="Noto Sans CJK SC" font-size="10.50">M17 关键数学归约【当前未证】</text>
<text text-anchor="middle" x="841" y="-495.6" font-family="Noto Sans CJK SC" font-size="10.50">源证书 &#45;&gt; 同一 G_n 的短 PA 证明</text>
<text text-anchor="middle" x="841" y="-483.6" font-family="Noto Sans CJK SC" font-size="10.50">须独立证明；不能由编译或语法检查代替</text>
</g>
<!-- direct_predicate&#45;&gt;sondow_bridge -->
<g id="edge20" class="edge">
<title>direct_predicate&#45;&gt;sondow_bridge</title>
<path fill="none" stroke="#65777d" stroke-width="1.05" stroke-dasharray="1,5" d="M700.44,-647.92C729.62,-613.13 770,-565 770,-565 770,-565 791.47,-545.04 810.79,-527.08"/>
<polygon fill="#65777d" stroke="#65777d" stroke-width="1.05" points="812.81,-528.46 816.17,-522.08 809.57,-524.97 812.81,-528.46"/>
<text text-anchor="middle" x="799" y="-586.7" font-family="Noto Sans CJK SC" font-size="8.50">只固定目标公式</text>
</g>
<!-- pudlak_conditions -->
<g id="node18" class="node">
<title>pudlak_conditions</title>
<path fill="#fff0c9" stroke="#b37a12" stroke-width="1.2" d="M704,-522C704,-522 544,-522 544,-522 538,-522 532,-516 532,-510 532,-510 532,-486 532,-486 532,-480 538,-474 544,-474 544,-474 704,-474 704,-474 710,-474 716,-480 716,-486 716,-486 716,-510 716,-510 716,-516 710,-522 704,-522"/>
<text text-anchor="middle" x="624" y="-507.6" font-family="Noto Sans CJK SC" font-size="10.50">M12 具体下界条件【纸面核查】</text>
<text text-anchor="middle" x="624" y="-495.6" font-family="Noto Sans CJK SC" font-size="10.50">同一 P_direct、PA 系统与完整载荷</text>
<text text-anchor="middle" x="624" y="-483.6" font-family="Noto Sans CJK SC" font-size="10.50">(0) 已纸面证明；(1)&#45;(3) 等仍待证</text>
</g>
<!-- accepted_trace&#45;&gt;pudlak_conditions -->
<g id="edge13" class="edge">
<title>accepted_trace&#45;&gt;pudlak_conditions</title>
<path fill="none" stroke="#65777d" stroke-width="1.05" d="M612.94,-564.62C614.77,-553.78 616.96,-540.78 618.91,-529.21"/>
<polygon fill="#65777d" stroke="#65777d" stroke-width="1.05" points="621.3,-529.33 620.09,-522.23 616.61,-528.54 621.3,-529.33"/>
</g>
<!-- accepted_trace&#45;&gt;sondow_bridge -->
<g id="edge21" class="edge">
<title>accepted_trace&#45;&gt;sondow_bridge</title>
<path fill="none" stroke="#65777d" stroke-width="1.05" stroke-dasharray="1,5" d="M644.77,-564.93C664.49,-552.23 685,-539 685,-539 685,-539 712.44,-531.96 744.3,-523.79"/>
<polygon fill="#65777d" stroke="#65777d" stroke-width="1.05" points="745.16,-526.03 751.16,-522.04 743.98,-521.42 745.16,-526.03"/>
<text text-anchor="middle" x="714" y="-541.2" font-family="Noto Sans CJK SC" font-size="8.50">只提供编译工具</text>
</g>
<!-- pudlak_theorem -->
<g id="node19" class="node">
<title>pudlak_theorem</title>
<path fill="#e1edf9" stroke="#47799e" stroke-width="1.2" d="M618.5,-439C618.5,-439 473.5,-439 473.5,-439 467.5,-439 461.5,-433 461.5,-427 461.5,-427 461.5,-403 461.5,-403 461.5,-397 467.5,-391 473.5,-391 473.5,-391 618.5,-391 618.5,-391 624.5,-391 630.5,-397 630.5,-403 630.5,-403 630.5,-427 630.5,-427 630.5,-433 624.5,-439 618.5,-439"/>
<text text-anchor="middle" x="546" y="-424.6" font-family="Noto Sans CJK SC" font-size="10.50">M13 条件下界：纸面推导已写出</text>
<text text-anchor="middle" x="546" y="-412.6" font-family="Noto Sans CJK SC" font-size="10.50">以 M12 及高效固定点等为前提</text>
<text text-anchor="middle" x="546" y="-400.6" font-family="Noto Sans CJK SC" font-size="10.50">尚非当前谓词的具体下界</text>
</g>
<!-- pudlak_conditions&#45;&gt;pudlak_theorem -->
<g id="edge14" class="edge">
<title>pudlak_conditions&#45;&gt;pudlak_theorem</title>
<path fill="none" stroke="#65777d" stroke-width="1.05" d="M601.44,-473.57C592.55,-464.34 582.27,-453.66 572.99,-444.03"/>
<polygon fill="#65777d" stroke="#65777d" stroke-width="1.05" points="574.67,-442.34 568.24,-439.1 571.24,-445.65 574.67,-442.34"/>
</g>
<!-- buss_theorem -->
<g id="node20" class="node">
<title>buss_theorem</title>
<path fill="#e1edf9" stroke="#47799e" stroke-width="1.2" d="M652,-356C652,-356 440,-356 440,-356 434,-356 428,-350 428,-344 428,-344 428,-320 428,-320 428,-314 434,-308 440,-308 440,-308 652,-308 652,-308 658,-308 664,-314 664,-320 664,-320 664,-344 664,-344 664,-350 658,-356 652,-356"/>
<text text-anchor="middle" x="546" y="-341.6" font-family="Noto Sans CJK SC" font-size="10.50">M14 条件重标定：纸面算术已完成</text>
<text text-anchor="middle" x="546" y="-329.6" font-family="Noto Sans CJK SC" font-size="10.50">rho_d(n) = (n+1)^(d*n)；G_n = F_{rho_d(n)}</text>
<text text-anchor="middle" x="546" y="-317.6" font-family="Noto Sans CJK SC" font-size="10.50">具体下界前提仍待证</text>
</g>
<!-- pudlak_theorem&#45;&gt;buss_theorem -->
<g id="edge15" class="edge">
<title>pudlak_theorem&#45;&gt;buss_theorem</title>
<path fill="none" stroke="#65777d" stroke-width="1.05" d="M546,-390.57C546,-382.02 546,-372.22 546,-363.16"/>
<polygon fill="#65777d" stroke="#65777d" stroke-width="1.05" points="548.38,-362.9 546,-356.1 543.62,-362.9 548.38,-362.9"/>
</g>
<!-- buss_theorem&#45;&gt;lower -->
<g id="edge16" class="edge">
<title>buss_theorem&#45;&gt;lower</title>
<path fill="none" stroke="#65777d" stroke-width="1.05" d="M515.91,-307.79C503.61,-298.3 489.29,-287.25 476.48,-277.37"/>
<polygon fill="#65777d" stroke="#65777d" stroke-width="1.05" points="477.93,-275.48 471.09,-273.21 475.02,-279.25 477.93,-275.48"/>
</g>
<!-- lower&#45;&gt;audit_gate -->
<g id="edge23" class="edge">
<title>lower&#45;&gt;audit_gate</title>
<path fill="none" stroke="#65777d" stroke-width="1.05" d="M441,-224.57C441,-216.02 441,-206.22 441,-197.16"/>
<polygon fill="#65777d" stroke="#65777d" stroke-width="1.05" points="443.38,-196.9 441,-190.1 438.62,-196.9 443.38,-196.9"/>
</g>
<!-- sondow_cert -->
<g id="node22" class="node">
<title>sondow_cert</title>
<path fill="#e1edf9" stroke="#47799e" stroke-width="1.2" d="M1062.5,-613C1062.5,-613 849.5,-613 849.5,-613 843.5,-613 837.5,-607 837.5,-601 837.5,-601 837.5,-577 837.5,-577 837.5,-571 843.5,-565 849.5,-565 849.5,-565 1062.5,-565 1062.5,-565 1068.5,-565 1074.5,-571 1074.5,-577 1074.5,-577 1074.5,-601 1074.5,-601 1074.5,-607 1068.5,-613 1062.5,-613"/>
<text text-anchor="middle" x="956" y="-598.6" font-family="Noto Sans CJK SC" font-size="10.50">M16 有限有理证书【纸面构造】</text>
<text text-anchor="middle" x="956" y="-586.6" font-family="Noto Sans CJK SC" font-size="10.50">真、假源句均有多项式 PA 证明构造</text>
<text text-anchor="middle" x="956" y="-574.6" font-family="Noto Sans CJK SC" font-size="10.50">旧 Prop 接受含 gamma 等式；不能视作此实现</text>
</g>
<!-- sondow_cert&#45;&gt;sondow_bridge -->
<g id="edge18" class="edge">
<title>sondow_cert&#45;&gt;sondow_bridge</title>
<path fill="none" stroke="#65777d" stroke-width="1.05" d="M926.09,-564.85C910.91,-553.11 892.38,-538.76 876.49,-526.47"/>
<polygon fill="#65777d" stroke="#65777d" stroke-width="1.05" points="877.6,-524.32 870.76,-522.04 874.69,-528.08 877.6,-524.32"/>
</g>
<!-- sondow_bridge&#45;&gt;upper -->
<g id="edge19" class="edge">
<title>sondow_bridge&#45;&gt;upper</title>
<path fill="none" stroke="#65777d" stroke-width="1.05" d="M805.47,-473.79C787.59,-462.11 766.1,-448.08 748.78,-436.76"/>
<polygon fill="#65777d" stroke="#65777d" stroke-width="1.05" points="750.07,-434.76 743.08,-433.04 747.47,-438.75 750.07,-434.76"/>
</g>
<!-- upper&#45;&gt;audit_gate -->
<g id="edge24" class="edge">
<title>upper&#45;&gt;audit_gate</title>
<path fill="none" stroke="#65777d" stroke-width="1.05" d="M710.09,-396.97C697.94,-367.01 674,-308 674,-308 674,-308 555,-225 555,-225 555,-225 522.9,-208.67 492.77,-193.34"/>
<polygon fill="#65777d" stroke="#65777d" stroke-width="1.05" points="493.52,-191.05 486.38,-190.09 491.36,-195.29 493.52,-191.05"/>
</g>
<!-- collision -->
<g id="node26" class="node">
<title>collision</title>
<path fill="#f3f3f3" stroke="#777777" stroke-width="2.2" stroke-dasharray="5,2" d="M512.5,-107C512.5,-107 369.5,-107 369.5,-107 363.5,-107 357.5,-101 357.5,-95 357.5,-95 357.5,-83 357.5,-83 357.5,-77 363.5,-71 369.5,-71 369.5,-71 512.5,-71 512.5,-71 518.5,-71 524.5,-77 524.5,-83 524.5,-83 524.5,-95 524.5,-95 524.5,-101 518.5,-107 512.5,-107"/>
<text text-anchor="middle" x="441" y="-92.6" font-family="Noto Sans CJK SC" font-size="10.50">M20 对撞定理</text>
<text text-anchor="middle" x="441" y="-80.6" font-family="Noto Sans CJK SC" font-size="10.50">U(N) &lt; minProof(G_N) &lt;= U(N)</text>
</g>
<!-- audit_gate&#45;&gt;collision -->
<g id="edge26" class="edge">
<title>audit_gate&#45;&gt;collision</title>
<path fill="none" stroke="#65777d" stroke-width="1.05" d="M441,-141.68C441,-132.86 441,-122.81 441,-113.93"/>
<polygon fill="#65777d" stroke="#65777d" stroke-width="1.05" points="443.38,-113.91 441,-107.11 438.62,-113.91 443.38,-113.91"/>
</g>
<!-- final -->
<g id="node27" class="node">
<title>final</title>
<path fill="#f3f3f3" stroke="#777777" stroke-width="2.2" stroke-dasharray="5,2" d="M513,-36C513,-36 369,-36 369,-36 363,-36 357,-30 357,-24 357,-24 357,-12 357,-12 357,-6 363,0 369,0 369,0 513,0 513,0 519,0 525,-6 525,-12 525,-12 525,-24 525,-24 525,-30 519,-36 513,-36"/>
<text text-anchor="middle" x="441" y="-21.6" font-family="Noto Sans CJK SC" font-size="10.50">M21 最终非有理性结论</text>
<text text-anchor="middle" x="441" y="-9.6" font-family="Noto Sans CJK SC" font-size="10.50">只在全部上游根定理闭合后成立</text>
</g>
<!-- collision&#45;&gt;final -->
<g id="edge27" class="edge">
<title>collision&#45;&gt;final</title>
<path fill="none" stroke="#65777d" stroke-width="1.05" d="M441,-70.94C441,-62.63 441,-52.48 441,-43.37"/>
<polygon fill="#65777d" stroke="#65777d" stroke-width="1.05" points="443.38,-43.14 441,-36.34 438.62,-43.14 443.38,-43.14"/>
</g>
</g>
</svg>
